<svg width="79" height="79" viewBox="0 0 79 79" fill="none" xmlns="http://www.w3.org/2000/svg">
<path d="M55.576 23C59.198 23.0001 60.5759 25.5001 60.076 29L59.576 32.5H66.576C70.1759 32.5 72.5759 36.9999 72.576 40.5C72.576 45.9999 71.5758 51.4999 70.576 56C69.4482 61.0762 64.7427 62 63.076 62H55.576C55.0763 65.9969 55.0756 66 54.5769 69.4922L54.576 69.5C53.8656 74.4743 51.5756 76.9999 46.576 77H20.076C14.876 77 13.2426 72 13.076 69.5C11.4092 59 8.20104 36.2539 7.07597 29.5C6.57622 26.5 8.57598 22.9999 12.076 23C25.5762 23.1667 51.9538 23 55.576 23ZM58.576 38L56.576 56H62.576C63.4094 55.8332 65.176 54.9998 65.576 53C65.976 51 66.4093 44.8333 66.576 42C66.7426 40.5 66.4042 38.0002 63.576 38C61.0761 37.9999 60.5758 38 58.576 38Z" fill="white"/>
<rect x="18.5762" y="8" width="6" height="9" rx="3" fill="white"/>
<rect x="30.5762" y="2" width="6" height="15" rx="3" fill="white"/>
<rect x="42.5762" y="5" width="6" height="12" rx="3" fill="white"/>
</svg>
